<svg xmlns="http://www.w3.org/2000/svg" version="1.1" viewBox="-5.0 -10.0 110.0 135.0">
 <path d="m30.367 11.418c-6.168 0-12.332 2.3555-17.047 7.0703-9.4258 9.4336-9.4258 24.695 0 34.129l3.7227 3.7188c0.003906 0 0.003906 0.003906 0.003906 0.003906l30.625 30.633c0.42578 0.42578 0.85547 0.83594 1.3047 1.2227v0.003907c0.58594 0.51172 1.4648 0.51172 2.0508 0 0.44531-0.38672 0.87891-0.79688 1.3047-1.2227l30.617-30.633s0.003906 0 0.003906-0.003906l0.003906-0.003906 3.7227-3.7188c9.4258-9.4336 9.4258-24.695 0-34.129-4.7148-4.7188-10.879-7.0703-17.047-7.0703-6.1719 0-12.348 2.3516-17.059 7.0703l-2.5742 2.5781-2.5742-2.5781c-4.7109-4.7188-10.887-7.0703-17.059-7.0703zm0 3.1016c5.3633 0 10.727 2.0586 14.848 6.1836l3.6758 3.6797v-0.003906c0.34766 0.34766 0.83203 0.51172 1.3125 0.44531 0.34375-0.042969 0.66016-0.19922 0.90625-0.44531l3.6797-3.6797c8.2422-8.2461 21.434-8.2461 29.676 0 8.2422 8.2461 8.2422 21.457 0 29.703l-3.7227 3.7227c-0.003907 0.003906-0.003907 0.003906-0.007813 0.007812l-30.617 30.641c-0.039063 0.039062-0.078126 0.074218-0.11719 0.11328-0.039062-0.039063-0.085938-0.074219-0.125-0.11328l-30.617-30.641-0.007812-0.007812-3.7266-3.7227c-8.2422-8.2461-8.2422-21.457 0-29.703 4.1211-4.1211 9.4844-6.1836 14.844-6.1836z"/>
<text x="0.0" y="117.5" font-size="5.0" font-weight="bold" font-family="Arbeit Regular, Helvetica, Arial-Unicode, Arial, Sans-serif" fill="#000000">by Muhammad Naufal Subhiansyah</text><text x="0.0" y="122.5" font-size="5.0" font-weight="bold" font-family="Arbeit Regular, Helvetica, Arial-Unicode, Arial, Sans-serif" fill="#000000">from Noun Project</text></svg>