<svg xmlns="http://www.w3.org/2000/svg" version="1.1" viewBox="-5.0 -10.0 110.0 135.0">
 <path d="m92.922 47.055-12.914-24.086c-0.50781-0.94531-1.4922-1.5312-2.5703-1.5312-0.47656 0-0.94922 0.11719-1.3672 0.34375l-8.0938 4.3398c-0.68359 0.36719-1.1836 0.97656-1.4102 1.7227-0.22656 0.74609-0.14844 1.5312 0.21875 2.2148l0.12109 0.22266-2.4453 0.83594-14.035-2.0625c-0.26172-0.035157-0.52344 0.03125-0.73438 0.19141l-3.9648 3.0234h-10.023l-2.6719-1.8711 0.18359-0.33984c0.36719-0.68359 0.44531-1.4688 0.21875-2.2148-0.22656-0.74609-0.72656-1.3594-1.4102-1.7227l-8.0938-4.3438c-0.41797-0.22266-0.89453-0.34375-1.3672-0.34375-1.0781 0-2.0625 0.58594-2.5703 1.5312l-12.91 24.09c-0.75781 1.4141-0.22656 3.1797 1.1875 3.9414l8.0977 4.3398c0.41797 0.22266 0.89062 0.34375 1.3672 0.34375 1.0781 0 2.0625-0.58594 2.5703-1.5312l0.066406-0.125c0.074218 0.050781 0.14844 0.10156 0.24219 0.12891l1.4805 0.45703c0.15625 1.0664 0.63672 3.1016 2.0234 4.3008l-0.43359 0.43359c-1.5781 1.5781-1.5781 4.1445 0 5.7227 0.76562 0.76562 1.7812 1.1836 2.8594 1.1836 0.57031 0 1.1172-0.125 1.625-0.34766 0.12891 0.84375 0.50781 1.6211 1.125 2.2344 0.76562 0.76562 1.7812 1.1875 2.8633 1.1875 0.66016 0 1.2852-0.17578 1.8555-0.47266 0.14062 0.78125 0.51172 1.5312 1.1133 2.1328 0.76562 0.76562 1.7812 1.1836 2.8594 1.1836 0.44531 0 0.875-0.089844 1.2852-0.22656 0.097657 0.91406 0.48047 1.7695 1.1445 2.4336 0.76563 0.76172 1.7812 1.1836 2.8594 1.1836 1.0664 0 2.0664-0.41406 2.8242-1.1562l4.3828 3.2969c0.77734 0.58203 1.6836 0.86328 2.5898 0.86328 1.3125 0 2.6094-0.59375 3.457-1.7188 0.58203-0.77344 0.86328-1.6953 0.85156-2.6484 0.40625 0.125 0.83203 0.19922 1.2656 0.19922 0.20312 0 0.41016-0.015625 0.61719-0.042969 1.1406-0.16406 2.1523-0.75781 2.8477-1.6797 0.55859-0.74219 0.84375-1.625 0.85156-2.5352 0.48828 0.19141 1.0078 0.29688 1.5391 0.29688 0.20312 0 0.41016-0.015625 0.61719-0.042969 1.1406-0.16406 2.1523-0.75781 2.8438-1.6797 0.62109-0.82422 0.90234-1.8242 0.84375-2.8438 0.28906 0.0625 0.58594 0.10547 0.88281 0.10547 0.20312 0 0.41016-0.015625 0.61328-0.042968 1.1406-0.16016 2.1523-0.75781 2.8438-1.6797 0.69531-0.92188 0.98828-2.0625 0.82422-3.207-0.050781-0.36328-0.16406-0.70703-0.30078-1.043 3.0469-1.6055 4.2969-4.1289 4.707-5.2109l1.4102-0.50391c0.52734 0.86328 1.4609 1.3945 2.4844 1.3945 0.47656 0 0.94922-0.11719 1.3672-0.34375l8.0938-4.3398c1.4141-0.75781 1.9492-2.5273 1.1914-3.9414zm-74.34 6.168c-0.16797 0.30859-0.49219 0.50391-0.84766 0.50391-0.15625 0-0.30859-0.039062-0.44531-0.11328l-8.0977-4.3398c-0.46484-0.25-0.64062-0.83203-0.39062-1.2969l12.91-24.086c0.16797-0.30859 0.49219-0.50391 0.84766-0.50391 0.15625 0 0.30859 0.039062 0.44531 0.11328l8.0938 4.3398c0.22266 0.12109 0.38672 0.32031 0.46094 0.56641 0.074218 0.24609 0.050781 0.50391-0.070313 0.72656zm6.4805 10.461c-0.81641-0.81641-0.8125-2.1445 0-2.9609l2.5977-2.5938c0.39453-0.39453 0.92188-0.61328 1.4805-0.61328s1.082 0.21875 1.4766 0.60938c0.81641 0.81641 0.81641 2.1445 0 2.9609l-2.5977 2.5977c-0.78516 0.78906-2.1641 0.78906-2.957 0zm7.0898 3.6836c-0.55859 0-1.0859-0.21875-1.4805-0.61328-0.39453-0.39062-0.60938-0.91406-0.60938-1.4727s0.21875-1.0859 0.61328-1.4844l4.7656-4.7656c0.39453-0.39453 0.92188-0.61328 1.4766-0.61328 0.55859 0 1.0859 0.21875 1.4805 0.61328 0.81641 0.81641 0.81641 2.1406 0 2.957l-2.0859 2.0859-1.1914 1.1875c-0.003906 0.003906-0.003906 0.003906-0.007813 0.007812l-1.4844 1.4844c-0.39453 0.39453-0.91797 0.61328-1.4766 0.61328zm4.3516 2.2344c-0.8125-0.81641-0.81641-2.1367-0.007812-2.9531l2.6016-2.6016c0.39453-0.39453 0.91797-0.61328 1.4766-0.61328 0.55859 0 1.0859 0.21875 1.4805 0.61328 0.39453 0.39453 0.61328 0.91797 0.61328 1.4766 0 0.55859-0.21875 1.0859-0.61328 1.4805l-0.91797 0.91406-1.6797 1.6797c-0.78516 0.79688-2.1641 0.79688-2.9531 0.003906zm6.7656 4c-0.55859 0-1.0859-0.21875-1.4805-0.60937-0.39453-0.39453-0.61328-0.92188-0.61328-1.4805 0-0.55859 0.21875-1.082 0.61328-1.4766l1.2422-1.2422c0.39453-0.39453 0.92188-0.61328 1.4805-0.61328 0.55859 0 1.082 0.21875 1.4766 0.60937 0.8125 0.81641 0.8125 2.1445 0.003907 2.9609l-1.2422 1.2383c-0.39453 0.39844-0.92188 0.61328-1.4805 0.61328zm34-20.496c-0.30078 0.10938-0.53125 0.35938-0.61719 0.66797-0.035156 0.12891-0.85938 3.0156-4.1523 4.6211-0.078125-0.066406-0.14062-0.14062-0.22266-0.20312l-16.848-12.473c-0.43359-0.32031-1.043-0.23047-1.3672 0.20312-0.32031 0.43359-0.23047 1.043 0.20312 1.3672l16.844 12.469c0.50391 0.37891 0.83203 0.92969 0.91797 1.5547 0.089844 0.625-0.070313 1.25-0.45312 1.7578-0.37891 0.50391-0.93359 0.83203-1.5586 0.92188-0.625 0.089843-1.25-0.070313-1.7617-0.45703l-1.0898-0.80859c-0.027343-0.019531-0.046874-0.046874-0.070312-0.066406-0.015625-0.011718-0.03125-0.011718-0.046875-0.023437l-14.391-10.645c-0.43359-0.32031-1.0469-0.23047-1.3672 0.20312-0.32031 0.43359-0.23047 1.043 0.20313 1.3672l14.5 10.727c0.46094 0.375 0.76562 0.89844 0.85156 1.4922 0.089844 0.625-0.070312 1.2461-0.45312 1.7539-0.37891 0.50391-0.93359 0.83203-1.5586 0.92188-0.625 0.089844-1.2461-0.070312-1.7422-0.44141l-9.3398-7.2422c-0.42578-0.33203-1.0391-0.25391-1.3711 0.17578-0.33203 0.42578-0.25391 1.0391 0.17578 1.3711l7.3984 5.7266c0.039063 0.042969 0.070313 0.097656 0.12109 0.13281 0.50391 0.37891 0.83203 0.93359 0.92188 1.5625 0.089844 0.625-0.070313 1.2461-0.44922 1.75-0.37891 0.50391-0.93359 0.83203-1.5625 0.92187-0.625 0.089844-1.2461-0.070312-1.7383-0.44141l-4.2148-3.293c-0.42578-0.33203-1.0391-0.25781-1.3711 0.16797-0.33203 0.42578-0.25781 1.0391 0.16797 1.3711l2.5352 1.9805c0.042969 0.050781 0.078125 0.10938 0.13281 0.14844 0.50391 0.37891 0.83203 0.93359 0.92188 1.5625 0.089843 0.625-0.070313 1.25-0.45312 1.7539-0.78516 1.0391-2.2695 1.2539-3.3125 0.46875l-4.168-3.1367c1.4492-1.5859 1.4219-4.0547-0.11328-5.5898-0.75391-0.75-1.7539-1.168-2.8164-1.1758 0.039062-0.23047 0.070312-0.46484 0.070312-0.70703 0-1.082-0.42188-2.0938-1.1836-2.8555-0.70703-0.70703-1.6289-1.1055-2.6172-1.1641 0.33984-1.3359 0.003906-2.8125-1.043-3.8555-0.76562-0.76563-1.7812-1.1875-2.8633-1.1875-1.0781 0-2.0977 0.42187-2.8594 1.1875l-1.0039 1c-0.16797-0.69922-0.51172-1.3633-1.0547-1.9062-0.76562-0.76172-1.7773-1.1836-2.8594-1.1836s-2.0977 0.42188-2.8633 1.1836l-0.76562 0.76562c-1.1289-0.83984-1.5039-2.918-1.5469-3.6992-0.019532-0.41016-0.29688-0.76172-0.6875-0.88281l-1.9961-0.61328 10.82-20.184 2.7305 1.9141c0.16406 0.11328 0.35938 0.17578 0.55859 0.17578h7.7695l-5.3008 4.043c-0.24219 0.18359-0.38281 0.47266-0.38281 0.77734v12.566c0 0.39844 0.24219 0.75781 0.61328 0.90625 0.65234 0.26172 1.5469 0.46875 2.5312 0.46875 2 0 4.3438-0.85938 5.6562-3.8867 0.023437-0.050781 0.039062-0.10547 0.054687-0.15625l1.1289-4.6484 14.641-1.6094c0.53516-0.058594 0.92188-0.54297 0.86328-1.0781-0.058594-0.53516-0.54297-0.92578-1.0781-0.86328l-15.32 1.6836c-0.41016 0.046875-0.74609 0.33984-0.84375 0.74219l-1.2695 5.2305c-1.3203 2.9531-3.8359 2.7734-5.0195 2.4922v-11.359l11.113-8.4805 13.863 2.0352c0.15625 0.023438 0.3125 0.007813 0.45703-0.042969l2.9727-1.0156 11 20.52zm13.539-3.832-8.0938 4.3398c-0.45703 0.24219-1.0586 0.054688-1.2969-0.39062l-12.914-24.09c-0.12109-0.22266-0.14453-0.48047-0.070312-0.72656 0.074218-0.24609 0.23828-0.44922 0.46094-0.56641l8.0938-4.3359c0.14062-0.074218 0.28906-0.11328 0.44922-0.11328 0.35547 0 0.68359 0.19141 0.84766 0.50391l12.91 24.086c0.25391 0.46094 0.078126 1.043-0.38672 1.293z"/>
<text x="0.0" y="117.5" font-size="5.0" font-weight="bold" font-family="Arbeit Regular, Helvetica, Arial-Unicode, Arial, Sans-serif" fill="#000000">Created by Akbar</text><text x="0.0" y="122.5" font-size="5.0" font-weight="bold" font-family="Arbeit Regular, Helvetica, Arial-Unicode, Arial, Sans-serif" fill="#000000">from Noun Project</text></svg>